<svg width="40" height="40" viewBox="0 0 40 40" fill="none" xmlns="http://www.w3.org/2000/svg">
<path d="M0 11.3L8.40594 13.3278L15.2622 16.0633L23.3964 20.7292L31.9567 26.0386L37.6893 30.1251L33.8104 29.749L36.1919 29.749L34.6946 29.3729L37.6893 30.1251L20.2398 39.434L19.8679 38.2621L17.7105 33.8002L13.8765 28.0088L10.8945 23.5045L7.51376 19.6011L0 11.3Z" fill="#FEE65E"/>
<path d="M29.3877 0.617006L25.8441 4.0273L23.446 7.31418L21.2472 11.8775L19.1149 16.8663L17.9286 20.4553L17.315 23.9826L17.3946 27.4351L17.8765 30.5199L18.3584 33.6047L39.9999 31.273L35.0273 25.5354L32.7775 22.3167L31.1004 19.0362L30.2163 16.3193L29.6181 12.4899L29.1528 9.51153L29.1728 6.69718L29.3877 0.617006Z" fill="#FEE65E"/>
</svg>
